<mxfile host="www.draw.io" modified="2019-11-10T14:53:58.732Z" agent="Mozilla/5.0 (Windows NT 10.0; Win64; x64) AppleWebKit/537.36 (KHTML, like Gecko) Chrome/78.0.3904.87 Safari/537.36" etag="IS9iv7Q0Ek15E_vSRRJ7" version="12.2.3" type="github" pages="1">
  <diagram name="Page-1" id="b5b7bab2-c9e2-2cf4-8b2a-24fd1a2a6d21">
    <mxGraphModel dx="893" dy="927" grid="1" gridSize="10" guides="1" tooltips="1" connect="1" arrows="1" fold="1" page="1" pageScale="1" pageWidth="827" pageHeight="1169" background="#ffffff" math="0" shadow="0">
      <root>
        <mxCell id="0"/>
        <mxCell id="1" parent="0"/>
        <mxCell id="BnAWIRu-mCrKlaFCmiCf-27" value="&amp;laquo;Annotation&amp;raquo;&lt;br/&gt;&lt;b&gt;Component&lt;/b&gt;" style="html=1;" vertex="1" parent="1">
          <mxGeometry x="20" y="80" width="720" height="410" as="geometry"/>
        </mxCell>
        <mxCell id="BnAWIRu-mCrKlaFCmiCf-28" value="" style="shape=component;jettyWidth=8;jettyHeight=4;" vertex="1" parent="BnAWIRu-mCrKlaFCmiCf-27">
          <mxGeometry x="1" width="20" height="20" relative="1" as="geometry">
            <mxPoint x="-27" y="7" as="offset"/>
          </mxGeometry>
        </mxCell>
        <mxCell id="BnAWIRu-mCrKlaFCmiCf-25" value="" style="ellipse;whiteSpace=wrap;html=1;fontFamily=Helvetica;fontSize=12;fontColor=#000000;align=center;strokeColor=#000000;fillColor=#ffffff;points=[];aspect=fixed;resizable=0;" vertex="1" parent="BnAWIRu-mCrKlaFCmiCf-27">
          <mxGeometry x="359.99999999999994" y="120" width="10" height="10" as="geometry"/>
        </mxCell>
        <mxCell id="BnAWIRu-mCrKlaFCmiCf-26" value="" style="rounded=0;orthogonalLoop=1;jettySize=auto;html=1;endArrow=halfCircle;endFill=0;endSize=6;strokeWidth=1;exitX=-0.006;exitY=0.143;exitDx=0;exitDy=0;exitPerimeter=0;" edge="1" parent="BnAWIRu-mCrKlaFCmiCf-27" target="BnAWIRu-mCrKlaFCmiCf-25">
          <mxGeometry relative="1" as="geometry">
            <mxPoint x="430.2719999999999" y="126.46999999999997" as="sourcePoint"/>
            <mxPoint x="370.2857142857142" y="125" as="targetPoint"/>
          </mxGeometry>
        </mxCell>
        <mxCell id="BnAWIRu-mCrKlaFCmiCf-1" value="«NG»&lt;br&gt;&lt;b&gt;CanaWebUI&lt;/b&gt;" style="html=1;" vertex="1" parent="1">
          <mxGeometry x="440" y="160" width="280" height="290" as="geometry"/>
        </mxCell>
        <mxCell id="BnAWIRu-mCrKlaFCmiCf-2" value="" style="shape=component;jettyWidth=8;jettyHeight=4;" vertex="1" parent="BnAWIRu-mCrKlaFCmiCf-1">
          <mxGeometry x="1" width="20" height="20" relative="1" as="geometry">
            <mxPoint x="-27" y="7" as="offset"/>
          </mxGeometry>
        </mxCell>
        <mxCell id="BnAWIRu-mCrKlaFCmiCf-33" value="" style="html=1;" vertex="1" parent="BnAWIRu-mCrKlaFCmiCf-1">
          <mxGeometry x="40" y="269.28571428571433" width="20" height="20.714285714285715" as="geometry"/>
        </mxCell>
        <mxCell id="BnAWIRu-mCrKlaFCmiCf-9" value="«Python»&lt;br&gt;&lt;b&gt;CanaWebBE&lt;/b&gt;" style="html=1;" vertex="1" parent="1">
          <mxGeometry x="40" y="160" width="280" height="290" as="geometry"/>
        </mxCell>
        <mxCell id="BnAWIRu-mCrKlaFCmiCf-10" value="" style="shape=component;jettyWidth=8;jettyHeight=4;" vertex="1" parent="BnAWIRu-mCrKlaFCmiCf-9">
          <mxGeometry x="1" width="20" height="20" relative="1" as="geometry">
            <mxPoint x="-27" y="7" as="offset"/>
          </mxGeometry>
        </mxCell>
        <mxCell id="BnAWIRu-mCrKlaFCmiCf-31" value="" style="html=1;" vertex="1" parent="BnAWIRu-mCrKlaFCmiCf-9">
          <mxGeometry x="210" y="270" width="20" height="20" as="geometry"/>
        </mxCell>
        <mxCell id="BnAWIRu-mCrKlaFCmiCf-23" value="" style="rounded=0;orthogonalLoop=1;jettySize=auto;html=1;endArrow=none;endFill=0;exitX=1.005;exitY=0.141;exitDx=0;exitDy=0;exitPerimeter=0;" edge="1" target="BnAWIRu-mCrKlaFCmiCf-25" parent="1" source="BnAWIRu-mCrKlaFCmiCf-9">
          <mxGeometry relative="1" as="geometry">
            <mxPoint x="340" y="195" as="sourcePoint"/>
          </mxGeometry>
        </mxCell>
        <mxCell id="BnAWIRu-mCrKlaFCmiCf-29" value="" style="html=1;" vertex="1" parent="1">
          <mxGeometry x="370" y="480" width="20" height="20" as="geometry"/>
        </mxCell>
        <mxCell id="BnAWIRu-mCrKlaFCmiCf-30" value="" style="endArrow=open;endFill=1;endSize=12;html=1;entryX=0.5;entryY=0;entryDx=0;entryDy=0;" edge="1" parent="1" source="BnAWIRu-mCrKlaFCmiCf-31" target="BnAWIRu-mCrKlaFCmiCf-29">
          <mxGeometry width="160" relative="1" as="geometry">
            <mxPoint x="40" y="520" as="sourcePoint"/>
            <mxPoint x="200" y="520" as="targetPoint"/>
            <Array as="points">
              <mxPoint x="260" y="460"/>
              <mxPoint x="380" y="460"/>
            </Array>
          </mxGeometry>
        </mxCell>
        <mxCell id="BnAWIRu-mCrKlaFCmiCf-36" value="" style="endArrow=open;endFill=1;endSize=12;html=1;entryX=0.5;entryY=0;entryDx=0;entryDy=0;exitX=0.5;exitY=1;exitDx=0;exitDy=0;" edge="1" parent="1" source="BnAWIRu-mCrKlaFCmiCf-33" target="BnAWIRu-mCrKlaFCmiCf-29">
          <mxGeometry width="160" relative="1" as="geometry">
            <mxPoint x="270" y="580" as="sourcePoint"/>
            <mxPoint x="430" y="580" as="targetPoint"/>
            <Array as="points">
              <mxPoint x="490" y="450"/>
              <mxPoint x="490" y="460"/>
              <mxPoint x="380" y="460"/>
            </Array>
          </mxGeometry>
        </mxCell>
        <mxCell id="BnAWIRu-mCrKlaFCmiCf-37" value="Authentication/Authorization" style="text;html=1;strokeColor=none;fillColor=none;align=center;verticalAlign=middle;whiteSpace=wrap;rounded=0;" vertex="1" parent="1">
          <mxGeometry x="295" y="510" width="170" height="20" as="geometry"/>
        </mxCell>
      </root>
    </mxGraphModel>
  </diagram>
</mxfile>
